<?xml version="1.0" encoding="utf-8"?>
<svg version="1.1" xmlns="http://www.w3.org/2000/svg" x="0px" y="0px" viewBox="0 0 1122 1122" style="enable-background:new 0 0 1122 1122;">
  <g id="BG">
    <rect x="0" y="0" style="fill: rgb(218, 165, 32);" width="1122" height="1122"/>
  </g>
  <g id="Layer_3">
    <path style="opacity:0.24;fill:#444444;" d="M968.328,86.434l-780.021-0.92c-3.631,0.007-7.545,6.191-8.965,11.011 c-1.142,1.373-1.382,3.405-0.118,5.037l100.152,121.447c2.734,3.316,6.808,5.23,11.102,5.222l4.267-0.008 c-11.163,4.135-19.148,14.87-19.121,27.449l0.725,367.626c0.025,13.413,9.131,24.73,21.476,28.13 c2.488,0.686,5.109,1.051,7.815,1.046l167.524-0.331l-3.099,1.724c-8.78,4.884-14.444,13.928-15.003,23.96l-2.942,52.784 c-2.367,2.4-5.36,5.436-9.25,9.38c-17.686,17.933-2.683,35.403-2.683,35.403l61.176,118.085c6.9,13.316,10.674,28.05,10.866,43.048 c0.002,0.135,0.005,0.283,0.007,0.419c-35.259,64.042-17.176,108.057,0.716,152.169c-0.5,11.402-1.211,22.266-2.209,32.136 l14.358,0.073c0.073,0.227,0.153,0.451,0.225,0.677h133.214c-0.285-1.619-0.53-3.188-0.802-4.792 c-0.507-2.988-1.019-5.983-1.484-8.917c-0.32-2.026-0.602-4-0.902-6.001c-0.339-2.246-0.694-4.516-1.008-6.729 c-0.511-3.61-0.98-7.161-1.428-10.682c-0.069-0.537-0.15-1.091-0.217-1.625c-2.257-18.009-3.695-34.805-4.547-50.42l0.053,0 l-0.743-53.028h-0.031c1.188-39.012,6-65.23,8.632-76.952c17.612-19.412,25.039-65.679,27.696-113.557 c1.097-19.669,0.24-38.132-2.438-54.333c0.267-10.964-1.719-21.665-5.977-28.975c-0.802-1.377-1.696-2.662-2.633-3.902 c-5.202-13.131-14.355-36.304-19.732-50.301l201.036-0.398c16.117-0.031,29.204-13.172,29.173-29.289l-0.725-367.626 c-0.015-7.808-3.071-15.143-8.604-20.653c-0.262-0.261-0.548-0.489-0.818-0.739c-0.133-0.126-0.272-0.245-0.407-0.368 c-0.411-0.366-0.818-0.734-1.245-1.074c-0.614-0.494-1.246-0.966-1.902-1.407c-0.242-0.162-0.495-0.301-0.741-0.456 c-0.447-0.28-0.895-0.558-1.36-0.812c-0.476-0.265-0.963-0.504-1.453-0.741c-0.157-0.074-0.311-0.15-0.469-0.221 c-0.717-0.331-1.446-0.633-2.188-0.904l1.036-0.002c4.316-0.008,8.399-1.958,11.118-5.31l98.874-121.861 c0.664-0.9,0.853-1.909,0.731-2.863C976.769,94.023,971.747,86.429,968.328,86.434z M590.66,651.91l0.238,1.398 c-0.572-0.475-1.18-0.94-1.83-1.395L590.66,651.91z M597.781,735.437l-8.025-2.221c-18.967-18.247-27.032-34.388-27.032-34.388 c-0.786-1.801-1.739-3.474-2.785-5.06c13.936-1.963,20.832-11.021,22.032-18.531c5.534-2.269,9.57-5.986,11.881-9.912 l10.777,40.982C601.846,714.934,599.604,724.796,597.781,735.437z"/>
  </g>
  <g id="Layer_2">
    <g>
      <g>
        <g>
          <g id="XMLID_4769_">
            <g id="XMLID_4770_">
              <path id="XMLID_4786_" style="fill:#F3DFC9;" d="M431.024,731.909l3.014-54.084c0.559-10.031,6.223-19.076,15.003-23.96 l23.76-13.216l16.917,95.45L431.024,731.909z"/>
              <g id="XMLID_4771_">
                <path id="XMLID_4785_" style="fill:#AE8A6D;" d="M569.945,802.972c-3.531,63.902,10.147,107.544,43.563,109.403 c33.412,1.857,45.455-59.179,49-123.079c3.564-63.898-13.423-115.153-46.834-117.012 C582.241,670.438,573.509,739.074,569.945,802.972z"/>
                <path id="XMLID_4784_" style="fill:#C4AE9B;" d="M503.861,694.868c-7.209-0.898-12.075-9.335-10.897-18.858l0,0 c1.183-9.515,7.988-16.497,15.184-15.607l21.99,2.988c7.195,0.891,28.827,0.689,30.689,9.144l0.222,2.157 c-1.186,9.503-11.644,21.924-34.175,19.064L503.861,694.868z"/>
                <path id="XMLID_4783_" style="fill:#DDC8B3;" d="M504.22,666.309c-7.606-3.421-10.094-14.323-5.583-24.372l0,0 c4.513-10.039,14.339-15.4,21.932-11.992l23.116,10.709c7.593,3.409,31.395,10.497,30.58,20.403l-0.485,2.441 c-4.512,10.026-20.184,20.12-43.937,9.367L504.22,666.309z"/>
                <g id="XMLID_4781_">
                  <path id="XMLID_4782_" style="fill:#AE8A6D;" d="M570.252,655.522c0.004-0.003,0.186-0.151-0.144-0.155 C570.201,655.464,570.252,655.522,570.252,655.522z"/>
                  <path style="fill:#F3DFC9;" d="M491.205,936.526c0.52,40.522,7.916,125.628,13.033,184.724h133.15 c-24.965-142.825-0.833-225.432-0.833-225.432s12.105-169.921,10.274-187.671c-1.832-17.75-21.65-71.506-21.65-71.506 l-54.926,18.881l22.171,84.312l-27.413-7.586c-14.139-3.913-25.907-15.77-25.334-30.429l-11.457-43.748 c-26.17,8.272-55.364,20.083-61.231,23.758c-6.162,3.859-9.372,23.38-9.372,23.38c-15.11,2.492-18.086,16.849-18.086,16.849 s0,0-17.684,17.932c-17.686,17.933-2.683,35.403-2.683,35.403l61.176,118.085 C487.24,906.794,491.013,921.528,491.205,936.526z"/>
                </g>
                <path id="XMLID_4780_" style="fill:#F3DFC9;" d="M602.242,691.18l20.068,34.456l-35.063,20.422 c11.063,18.069,37.035,40.892,55.433,30.176c18.654-10.865,22.505-51.592,11.641-70.245 C643.719,687.784,620.683,681.38,602.242,691.18z"/>
                <path id="XMLID_4779_" style="fill:#AE8A6D;" d="M655.372,711.947c0,0-24.99-62.869-27.688-71.003 c-2.698-8.134-33.164,43.163-33.164,43.163L655.372,711.947z"/>
                <g id="XMLID_4774_">
                  <path id="XMLID_4778_" style="fill:#F3DFC9;" d="M515.678,606.34c5.997,13.735-0.276,29.73-14.011,35.726 c-13.734,5.997-29.73-0.276-35.726-14.011c-5.997-13.734,0.276-29.73,14.011-35.726 C493.686,586.332,509.681,592.605,515.678,606.34z"/>
                  <path id="XMLID_4777_" style="fill:#F3DFC9;" d="M541.703,698.828c7.401,16.951-0.341,36.692-17.292,44.093 c-16.951,7.401-36.692-0.341-44.093-17.292c-7.401-16.951,0.341-36.693,17.292-44.093 C514.56,674.135,534.302,681.877,541.703,698.828z"/>
                  <polygon id="XMLID_4776_" style="fill:#F3DFC9;" points="463.79,619.512 476.953,717.924 541.545,710.995 517.898,618.257 &#10;&#9;&#9;&#9;&#9;&#9;&#9;&#9;&#9;&#9;&#9;&#9;&#9;&#9;&#9;&#9;&#9;&#9;"/>
                  <path id="XMLID_4775_" style="fill:#F3DFC9;" d="M479.952,592.329l58.435-21.216c5.029-1.826,10.612,0.57,12.753,5.474l0,0 c6.877,15.753,1.131,34.165-13.484,43.209l-35.988,22.27L479.952,592.329z"/>
                </g>
                <path id="XMLID_4773_" style="fill:#AE8A6D;" d="M570.253,655.522c4.141,11.673,19.974,16.677,35.396,11.221 c15.407-5.462,24.534-19.355,20.411-31.007l-13.046-35.514c-4.737-13.387-6.864-28.887-16.229-40.147 c-8.976-10.792-23.38-6.972-30.351,3.926c-9.266,14.488-5.049,37.081-2.777,52.8L570.253,655.522z"/>
                <path id="XMLID_4772_" style="fill:#F3DFC9;" d="M541.703,698.828c0,0,9.043,18.126,30.537,37.676 c23.276,21.171-27.204,69.865-27.204,69.865l-37.546-106.613L541.703,698.828z"/>
              </g>
            </g>
          </g>
          <g id="XMLID_2782_">
            <g id="XMLID_3698_">
              <g id="XMLID_3706_">
                <g id="XMLID_3711_">
                  <g id="XMLID_3712_">
                    <g id="XMLID_4762_">
                      <path id="XMLID_8_" style="fill:#EDEDED;" d="M835.347,227.113L275.1,228.218c-7.805,0.016-15.199-3.508-20.111-9.584 l-96.787-117.073c-2.105-2.904,3.791-16.037,9.082-16.048l780.021,0.92c3.48-0.005,8.638,7.875,6.623,10.799 l-98.684,120.429C850.354,223.63,843.055,227.097,835.347,227.113z"/>
                      <path style="fill:#EEEEEE;" d="M167.113,85.866l779.916,0.569c3.007-0.005,7.452,6.753,5.748,9.267 c0.199,0.057-84.229,103.576-84.136,103.92c-4.192,5.115-14.662,8.095-21.269,8.108l-584.099,1.153 c-6.69,0.013-17.295-2.999-21.505-8.206c0.087-0.326-82.728-100.955-82.544-101.034 C157.453,97.14,162.542,85.876,167.113,85.866z"/>
                      <path style="fill:#EFEFEF;" d="M166.941,86.22l779.811,0.218c2.534-0.004,6.265,5.632,4.872,7.734 c0.397,0.114-69.774,86.722-69.587,87.411c-3.494,4.263-17.135,6.756-22.641,6.767l-607.951,1.2 c-5.575,0.011-19.39-2.489-22.898-6.829c0.174-0.653-68.669-84.837-68.301-84.995 C158.809,95.623,163.09,86.227,166.941,86.22z"/>
                      <path style="fill:#F0F0F0;" d="M166.769,86.573l779.706-0.133c2.061-0.003,5.079,4.51,3.997,6.201 c0.596,0.17-55.319,69.868-55.039,70.902c-2.795,3.41-19.607,5.416-24.012,5.425l-631.803,1.248 c-4.46,0.009-21.486-1.979-24.292-5.451c0.26-0.979-54.61-68.719-54.057-68.956 C160.165,94.107,163.638,86.579,166.769,86.573z"/>
                      <path style="fill:#F0F0F0;" d="M166.598,86.926l779.601-0.484c1.588-0.003,3.893,3.388,3.121,4.668 c0.795,0.227-40.864,53.015-40.49,54.393c-2.096,2.558-22.08,4.077-25.383,4.083l-655.656,1.295 c-3.345,0.007-23.581-1.47-25.686-4.073c0.347-1.306-40.551-52.602-39.814-52.916 C161.521,92.59,164.187,86.931,166.598,86.926z"/>
                      <path style="fill:#F1F1F1;" d="M166.426,87.279l779.496-0.835c1.115-0.002,2.706,2.267,2.245,3.135 c0.993,0.284-26.409,36.161-25.942,37.884c-1.397,1.705-24.552,2.737-26.755,2.742l-679.508,1.343 c-2.23,0.005-25.676-0.96-27.08-2.696c0.434-1.632-26.492-36.484-25.571-36.877 C162.877,91.073,164.735,87.283,166.426,87.279z"/>
                      <path style="fill:#F2F2F2;" d="M166.254,87.632l779.391-1.186c0.641-0.001,1.52,1.145,1.37,1.602 c1.192,0.341-11.954,19.308-11.393,21.375c-0.699,0.853-27.025,1.398-28.126,1.4l-703.36,1.39 c-1.115,0.002-27.772-0.451-28.474-1.319c0.52-1.959-12.434-20.366-11.327-20.838 C164.234,89.557,165.284,87.635,166.254,87.632z"/>
                      <path id="XMLID_7_" style="fill:#F3F3F3;" d="M949.017,91.383c-0.73-2.691-2.028-4.94-3.65-4.935l-779.286,1.537 c-1.635,0.005-2.925,2.254-3.642,4.953L949.017,91.383z"/>
                    </g>
                    <g id="XMLID_4758_">
                      <linearGradient id="XMLID_00000053538902422444889840000004649040481184462248_" gradientUnits="userSpaceOnUse" x1="149.2672" y1="690.9619" x2="834.4587" y2="690.9619" gradientTransform="matrix(0.9641 0.2656 -0.2656 0.9641 267.6989 -357.9139)">
                        <stop offset="0" style="stop-color:#FFFFFF"/>
                        <stop offset="0.0021" style="stop-color:#FDFDFD"/>
                        <stop offset="0.0521" style="stop-color:#D0D0D2"/>
                        <stop offset="0.1003" style="stop-color:#ADADAF"/>
                        <stop offset="0.1455" style="stop-color:#949497"/>
                        <stop offset="0.1866" style="stop-color:#858588"/>
                        <stop offset="0.2199" style="stop-color:#808083"/>
                        <stop offset="0.2578" style="stop-color:#A5A5A7"/>
                        <stop offset="0.3191" style="stop-color:#DBDCDC"/>
                        <stop offset="0.3489" style="stop-color:#F0F1F1"/>
                        <stop offset="0.4045" style="stop-color:#C4C5C6"/>
                        <stop offset="0.4736" style="stop-color:#939396"/>
                        <stop offset="0.5078" style="stop-color:#808083"/>
                        <stop offset="0.5213" style="stop-color:#909093"/>
                        <stop offset="0.5539" style="stop-color:#B1B2B4"/>
                        <stop offset="0.585" style="stop-color:#C9CACC"/>
                        <stop offset="0.6136" style="stop-color:#D8D9DA"/>
                        <stop offset="0.6373" style="stop-color:#DDDEDF"/>
                        <stop offset="0.6564" style="stop-color:#CFD0D1"/>
                        <stop offset="0.7682" style="stop-color:#808083"/>
                        <stop offset="0.7729" style="stop-color:#828285"/>
                        <stop offset="0.9955" style="stop-color:#F0F1F1"/>
                      </linearGradient>
                      <path id="XMLID_4759_" style="fill:url(#XMLID_00000053538902422444889840000004649040481184462248_);" d=" M276.802,651.427c-12.344-3.4-21.45-14.716-21.476-28.129l-0.725-367.626c-0.033-16.117,13.056-29.258,29.173-29.289 l548.375-1.082c7.81-0.015,15.156,3.01,20.687,8.52c5.533,5.51,8.589,12.845,8.605,20.653l0.724,367.626 c0.031,16.117-13.056,29.258-29.173,29.289l-548.376,1.085C281.911,652.479,279.29,652.114,276.802,651.427z M832.155,227.118l0.002,1.82l-548.376,1.085c-14.112,0.028-25.57,11.529-25.542,25.644l0.725,367.624 c0.028,14.112,11.532,25.572,25.645,25.544l548.376-1.082c14.112-0.031,25.57-11.532,25.542-25.644l-0.725-367.626 c-0.028-14.112-11.535-25.57-25.644-25.544L832.155,227.118z"/>
                    </g>
                    <path id="XMLID_4757_" style="fill:#E7E7E7;" d="M832.155,227.12l-548.376,1.082 c-15.141,0.028-27.389,12.326-27.359,27.467l0.725,367.624c0.031,15.14,12.326,27.389,27.466,27.361l548.376-1.085 c15.141-0.028,27.39-12.326,27.359-27.466l-0.725-367.624C859.591,239.339,847.293,227.089,832.155,227.12z"/>
                    <path id="XMLID_4756_" style="fill:#3F3F3F;" d="M843.289,227.097l-573.833,1.133c-4.294,0.008-8.368-1.907-11.103-5.223 L158.202,101.561c-2.102-2.714-0.095-6.572,3.423-6.579l788.158-1.555c3.477-0.008,5.513,3.768,3.498,6.5l-98.874,121.861 C851.688,225.139,847.604,227.089,843.289,227.097z"/>
                    <path id="XMLID_4755_" style="fill:#555555;" d="M839.65,224.298l-566.518,1.118c-4.241,0.008-8.263-1.825-10.962-4.993 l-98.869-116.184c-2.074-2.596-0.092-6.286,3.383-6.294l778.111-1.537c3.434-0.005,5.441,3.606,3.454,6.22l-97.622,116.59 C847.941,222.422,843.911,224.288,839.65,224.298z"/>
                    <path id="XMLID_4754_" style="fill:#F3F3F3;" d="M834.82,210.299l-546.952,1.079c-1.37,0.005-2.66-0.632-3.48-1.714 l-74.64-98.484c-2.138-2.819-0.103-6.836,3.462-6.844l688.006-1.357c3.465-0.008,5.539,3.799,3.621,6.646l-66.414,98.761 C837.622,209.579,836.27,210.296,834.82,210.299z"/>
                    <path id="XMLID_4753_" style="fill:#E2E2E2;" d="M810.605,477.27l-515.424,1.018c-4.508,0.01-8.168-3.637-8.176-8.142 l-0.401-203.397c-0.01-4.505,3.637-8.165,8.142-8.175l515.425-1.018c4.505-0.008,8.165,3.637,8.176,8.142l0.401,203.397 C818.755,473.603,815.111,477.262,810.605,477.27z"/>
                    <rect id="XMLID_4752_" x="339.406" y="227.664" transform="matrix(1 -0.002 0.002 1 -0.4707 1.0979)" style="fill:#3F3F3F;" width="434.013" height="23.119"/>
                    <g id="XMLID_4745_">
                      <path id="XMLID_6_" style="fill:#C4C4C4;" d="M639.738,633.139l-166.144,0.326c-6.937,0.016-12.568-5.598-12.583-12.531 l-0.218-111.499c-0.015-6.937,5.595-12.568,12.532-12.583l166.144-0.326c6.937-0.016,12.568,5.595,12.583,12.532 l0.219,111.498C652.285,627.49,646.674,633.123,639.738,633.139z"/>
                      <path style="fill:#C5C5C5;" d="M639.625,633.046l-165.918,0.326c-6.927,0.015-12.551-5.59-12.566-12.515l-0.218-111.347 c-0.015-6.927,5.588-12.551,12.515-12.566l165.918-0.326c6.927-0.016,12.551,5.587,12.566,12.515l0.218,111.347 C652.155,627.405,646.552,633.031,639.625,633.046z"/>
                      <path style="fill:#C6C6C6;" d="M639.512,632.953l-165.693,0.326c-6.918,0.015-12.534-5.582-12.549-12.498l-0.218-111.196 c-0.015-6.918,5.58-12.533,12.498-12.549l165.692-0.326c6.918-0.015,12.534,5.58,12.549,12.498l0.218,111.195 C652.025,627.32,646.429,632.938,639.512,632.953z"/>
                      <path style="fill:#C7C7C7;" d="M639.399,632.861l-165.467,0.325c-6.908,0.015-12.517-5.575-12.532-12.481l-0.218-111.044 c-0.015-6.908,5.573-12.516,12.481-12.532l165.467-0.325c6.908-0.015,12.517,5.573,12.532,12.481l0.218,111.044 C651.895,627.235,646.307,632.845,639.399,632.861z"/>
                      <path style="fill:#C8C8C8;" d="M639.286,632.768l-165.241,0.325c-6.898,0.015-12.5-5.567-12.515-12.464l-0.218-110.893 c-0.015-6.899,5.565-12.499,12.464-12.514l165.241-0.325c6.899-0.015,12.5,5.565,12.515,12.464l0.218,110.893 C651.765,627.15,646.184,632.753,639.286,632.768z"/>
                      <path style="fill:#C9C9C9;" d="M639.173,632.675L474.157,633c-6.889,0.015-12.483-5.56-12.498-12.447l-0.217-110.741 c-0.015-6.889,5.558-12.482,12.447-12.497l165.016-0.324c6.889-0.015,12.483,5.557,12.498,12.447l0.217,110.741 C651.635,627.065,646.062,632.66,639.173,632.675z"/>
                      <path style="fill:#CACACA;" d="M639.06,632.583l-164.79,0.324c-6.88,0.015-12.466-5.552-12.481-12.43l-0.217-110.59 c-0.015-6.88,5.55-12.465,12.43-12.48l164.79-0.324c6.88-0.015,12.466,5.55,12.481,12.43l0.217,110.59 C651.504,626.981,645.939,632.568,639.06,632.583z"/>
                      <path style="fill:#CBCBCB;" d="M638.947,632.49l-164.565,0.324c-6.87,0.015-12.449-5.544-12.464-12.413l-0.217-110.439 c-0.014-6.87,5.543-12.448,12.413-12.463l164.564-0.324c6.87-0.015,12.449,5.543,12.463,12.413l0.217,110.438 C651.374,626.896,645.817,632.475,638.947,632.49z"/>
                      <path style="fill:#CCCCCC;" d="M638.834,632.398l-164.339,0.324c-6.861,0.015-12.432-5.537-12.446-12.396l-0.217-110.287 c-0.014-6.861,5.535-12.431,12.396-12.445l164.339-0.324c6.861-0.015,12.432,5.535,12.446,12.396l0.217,110.287 C651.244,626.811,645.694,632.383,638.834,632.398z"/>
                      <path style="fill:#CDCDCD;" d="M638.721,632.305l-164.113,0.323c-6.851,0.014-12.415-5.529-12.429-12.379l-0.216-110.136 c-0.014-6.851,5.528-12.414,12.379-12.428l164.113-0.323c6.851-0.014,12.415,5.528,12.429,12.379l0.216,110.136 C651.114,626.726,645.572,632.29,638.721,632.305z"/>
                      <path style="fill:#CECECE;" d="M638.608,632.212l-163.888,0.323c-6.842,0.014-12.398-5.522-12.412-12.362l-0.216-109.984 c-0.014-6.842,5.52-12.397,12.362-12.411l163.888-0.323c6.842-0.014,12.398,5.52,12.412,12.362l0.216,109.984 C650.984,626.641,645.449,632.198,638.608,632.212z"/>
                      <path style="fill:#CFCFCF;" d="M638.495,632.12l-163.662,0.323c-6.832,0.014-12.381-5.514-12.395-12.345l-0.216-109.833 c-0.014-6.832,5.513-12.38,12.345-12.394l163.662-0.323c6.832-0.014,12.381,5.513,12.395,12.345l0.216,109.833 C650.854,626.557,645.327,632.105,638.495,632.12z"/>
                      <path style="fill:#CFCFCF;" d="M638.382,632.027l-163.436,0.322c-6.823,0.014-12.364-5.507-12.378-12.328l-0.216-109.682 c-0.014-6.823,5.505-12.363,12.328-12.377l163.436-0.322c6.823-0.014,12.364,5.505,12.378,12.328l0.216,109.681 C650.724,626.472,645.205,632.013,638.382,632.027z"/>
                      <path style="fill:#D0D0D0;" d="M638.269,631.934l-163.211,0.322c-6.813,0.014-12.347-5.499-12.361-12.311l-0.216-109.53 c-0.014-6.813,5.498-12.346,12.311-12.36l163.211-0.322c6.813-0.014,12.347,5.498,12.361,12.311l0.216,109.53 C650.594,626.387,645.082,631.92,638.269,631.934z"/>
                      <path style="fill:#D1D1D1;" d="M638.156,631.842l-162.985,0.322c-6.804,0.014-12.33-5.491-12.344-12.294l-0.215-109.379 c-0.014-6.804,5.49-12.329,12.294-12.342l162.985-0.322c6.804-0.014,12.33,5.49,12.344,12.294L650.45,619.5 C650.464,626.302,644.96,631.828,638.156,631.842z"/>
                      <path style="fill:#D2D2D2;" d="M638.043,631.749l-162.76,0.321c-6.794,0.014-12.313-5.484-12.327-12.277l-0.215-109.227 c-0.014-6.794,5.483-12.311,12.277-12.325l162.76-0.321c6.794-0.014,12.313,5.483,12.327,12.277l0.215,109.227 C650.334,626.217,644.837,631.735,638.043,631.749z"/>
                      <path style="fill:#D3D3D3;" d="M637.93,631.656l-162.534,0.321c-6.785,0.014-12.296-5.476-12.31-12.26l-0.215-109.076 c-0.013-6.785,5.475-12.294,12.26-12.308l162.534-0.321c6.785-0.014,12.296,5.475,12.31,12.26l0.215,109.076 C650.204,626.133,644.715,631.643,637.93,631.656z"/>
                      <path style="fill:#D4D4D4;" d="M637.817,631.564l-162.308,0.321c-6.775,0.013-12.279-5.469-12.293-12.243l-0.215-108.924 c-0.013-6.775,5.468-12.277,12.243-12.291l162.308-0.32c6.775-0.014,12.279,5.468,12.292,12.243l0.215,108.924 C650.074,626.048,644.592,631.55,637.817,631.564z"/>
                      <path style="fill:#D5D5D5;" d="M637.704,631.471l-162.083,0.32c-6.766,0.013-12.262-5.461-12.276-12.226l-0.214-108.773 c-0.013-6.766,5.46-12.26,12.226-12.274l162.083-0.32c6.766-0.013,12.262,5.46,12.275,12.226l0.215,108.773 C649.944,625.963,644.47,631.458,637.704,631.471z"/>
                      <path style="fill:#D6D6D6;" d="M637.591,631.378l-161.857,0.32c-6.756,0.013-12.245-5.453-12.258-12.209l-0.214-108.622 c-0.013-6.756,5.453-12.243,12.209-12.257l161.857-0.32c6.756-0.013,12.245,5.453,12.258,12.209l0.214,108.622 C649.813,625.878,644.347,631.365,637.591,631.378z"/>
                      <path style="fill:#D7D7D7;" d="M637.478,631.286l-161.632,0.32c-6.747,0.013-12.228-5.446-12.241-12.192l-0.214-108.47 c-0.013-6.747,5.445-12.226,12.192-12.239l161.632-0.319c6.747-0.013,12.228,5.445,12.241,12.192l0.214,108.47 C649.683,625.793,644.225,631.273,637.478,631.286z"/>
                      <path style="fill:#D8D8D8;" d="M637.365,631.193l-161.406,0.319c-6.737,0.013-12.211-5.438-12.224-12.175l-0.214-108.319 c-0.013-6.737,5.438-12.209,12.175-12.222l161.406-0.319c6.737-0.013,12.211,5.438,12.224,12.175l0.214,108.319 C649.553,625.708,644.102,631.18,637.365,631.193z"/>
                      <path style="fill:#D9D9D9;" d="M637.252,631.101l-161.18,0.319c-6.728,0.013-12.194-5.431-12.207-12.158l-0.214-108.167 c-0.013-6.728,5.431-12.192,12.158-12.205l161.18-0.319c6.728-0.013,12.194,5.43,12.207,12.158l0.214,108.167 C649.423,625.624,643.98,631.088,637.252,631.101z"/>
                      <path id="XMLID_5_" style="fill:#DADADA;" d="M637.139,631.008l-160.955,0.319c-6.718,0.013-12.177-5.423-12.19-12.141 l-0.213-108.016c-0.013-6.718,5.423-12.175,12.141-12.188l160.955-0.318c6.718-0.013,12.177,5.423,12.19,12.141 l0.213,108.016C649.293,625.539,643.857,630.995,637.139,631.008z"/>
                    </g>
                    <g id="XMLID_3796_">
                      <path id="XMLID_4744_" style="fill:#ECECEC;" d="M799.487,486.353l-493.154,0.974c-4.534,0.01-8.217-3.66-8.227-8.196 l-0.399-201.716c-0.008-4.534,3.66-8.219,8.196-8.227l493.152-0.974c4.536-0.008,8.219,3.66,8.229,8.196l0.398,201.716 C807.69,482.662,804.021,486.345,799.487,486.353z"/>
                      <g id="XMLID_3798_">
                        <path id="XMLID_4743_" style="fill:#1A1A1A;" d="M335.3,282.575l-22.329,0.044c-2.375,0.005-4.297,1.935-4.292,4.31 l0.046,22.964c0.005,2.375,1.933,4.297,4.31,4.292l22.326-0.044c2.375-0.005,4.297-1.935,4.292-4.31l-0.044-22.964 C339.604,284.493,337.674,282.57,335.3,282.575z"/>
                        <path id="XMLID_4742_" style="fill:#1A1A1A;" d="M376.63,282.493l-22.327,0.044c-2.377,0.005-4.3,1.935-4.294,4.31 l0.046,22.964c0.005,2.375,1.935,4.297,4.31,4.292l22.326-0.044c2.375-0.005,4.297-1.933,4.292-4.31l-0.044-22.961 C380.934,284.41,379.004,282.491,376.63,282.493z"/>
                        <path id="XMLID_4741_" style="fill:#1A1A1A;" d="M417.959,282.413l-22.326,0.043c-2.377,0.005-4.3,1.933-4.295,4.31 l0.047,22.961c0.005,2.377,1.932,4.3,4.31,4.294l22.327-0.044c2.375-0.005,4.297-1.935,4.292-4.31l-0.043-22.964 C422.264,284.328,420.334,282.408,417.959,282.413z"/>
                        <path id="XMLID_4740_" style="fill:#1A1A1A;" d="M459.289,282.331l-22.327,0.044c-2.377,0.005-4.297,1.935-4.294,4.31 l0.046,22.964c0.005,2.375,1.935,4.297,4.31,4.292l22.326-0.044c2.375-0.005,4.297-1.935,4.292-4.31l-0.044-22.964 C463.594,284.248,461.663,282.326,459.289,282.331z"/>
                        <path id="XMLID_4739_" style="fill:#1A1A1A;" d="M500.618,282.249l-22.326,0.043c-2.377,0.005-4.3,1.936-4.295,4.31 l0.046,22.964c0.005,2.375,1.932,4.297,4.31,4.292l22.327-0.044c2.375-0.005,4.297-1.935,4.292-4.31l-0.044-22.964 C504.923,284.166,502.993,282.244,500.618,282.249z"/>
                        <path id="XMLID_4738_" style="fill:#1A1A1A;" d="M541.948,282.167l-22.326,0.044c-2.378,0.005-4.297,1.936-4.295,4.31 l0.046,22.964c0.005,2.375,1.935,4.297,4.31,4.292l22.327-0.044c2.375-0.005,4.297-1.932,4.292-4.31l-0.044-22.961 C546.253,284.084,544.323,282.161,541.948,282.167z"/>
                        <path id="XMLID_4737_" style="fill:#1A1A1A;" d="M583.278,282.087l-22.327,0.044c-2.377,0.005-4.3,1.933-4.295,4.31 l0.046,22.961c0.005,2.377,1.935,4.297,4.31,4.295l22.326-0.044c2.375-0.005,4.297-1.935,4.292-4.31l-0.044-22.964 C587.583,284.004,585.652,282.082,583.278,282.087z"/>
                        <path id="XMLID_4736_" style="fill:#1A1A1A;" d="M624.607,282.004l-22.326,0.044c-2.377,0.005-4.297,1.935-4.292,4.31 l0.044,22.964c0.005,2.375,1.935,4.297,4.31,4.292l22.326-0.044c2.375-0.005,4.297-1.935,4.295-4.31l-0.046-22.964 C628.912,283.922,626.982,281.999,624.607,282.004z"/>
                        <path id="XMLID_4735_" style="fill:#1A1A1A;" d="M665.937,281.922l-22.327,0.044c-2.377,0.005-4.297,1.935-4.294,4.31 l0.046,22.964c0.005,2.375,1.935,4.297,4.31,4.292l22.326-0.043c2.375-0.005,4.297-1.935,4.292-4.31l-0.043-22.964 C670.242,283.84,668.312,281.917,665.937,281.922z"/>
                        <path id="XMLID_4734_" style="fill:#1A1A1A;" d="M707.267,281.84l-22.327,0.044c-2.377,0.005-4.297,1.935-4.292,4.31 l0.044,22.964c0.005,2.375,1.935,4.297,4.31,4.292l22.326-0.043c2.377-0.005,4.297-1.933,4.294-4.31l-0.046-22.961 C711.572,283.758,709.642,281.835,707.267,281.84z"/>
                        <path id="XMLID_4733_" style="fill:#1A1A1A;" d="M335.624,446.642l-22.327,0.044c-2.377,0.005-4.3,1.935-4.294,4.31 l0.046,22.964c0.005,2.375,1.933,4.297,4.31,4.292l22.326-0.044c2.375-0.005,4.297-1.935,4.292-4.31l-0.043-22.964 C339.928,448.56,337.998,446.637,335.624,446.642z"/>
                        <path id="XMLID_4732_" style="fill:#1A1A1A;" d="M376.953,446.56l-22.327,0.043c-2.377,0.005-4.3,1.935-4.295,4.31 l0.046,22.964c0.005,2.375,1.935,4.297,4.31,4.292l22.326-0.044c2.375-0.005,4.297-1.933,4.292-4.31l-0.044-22.961 C381.258,448.477,379.328,446.555,376.953,446.56z"/>
                        <path id="XMLID_4731_" style="fill:#1A1A1A;" d="M418.283,446.478l-22.326,0.047c-2.377,0.002-4.3,1.933-4.295,4.31 l0.046,22.961c0.005,2.377,1.933,4.297,4.31,4.295l22.327-0.046c2.375-0.002,4.297-1.933,4.292-4.307l-0.043-22.964 C422.588,448.395,420.658,446.475,418.283,446.478z"/>
                        <path id="XMLID_4730_" style="fill:#1A1A1A;" d="M792.157,445.74l-22.329,0.043c-2.375,0.005-4.297,1.936-4.292,4.31 l0.046,22.964c0.005,2.375,1.933,4.297,4.31,4.292l22.326-0.044c2.375-0.005,4.297-1.932,4.292-4.31l-0.046-22.961 C796.462,447.657,794.532,445.735,792.157,445.74z"/>
                        <path id="XMLID_4729_" style="fill:#1A1A1A;" d="M484.075,446.349l-47.775,0.095c-1.83,0.003-3.313,1.491-3.308,3.321 l0.049,24.935c0.002,1.833,1.49,3.313,3.32,3.31l47.776-0.095c1.83-0.003,3.313-1.491,3.308-3.323l-0.049-24.935 C487.393,447.827,485.904,446.347,484.075,446.349z"/>
                        <path id="XMLID_4728_" style="fill:#1A1A1A;" d="M755.528,445.812l-47.773,0.095c-1.833,0.005-3.313,1.491-3.311,3.323 l0.049,24.935c0.005,1.83,1.49,3.313,3.323,3.308l47.775-0.095c1.83-0.002,3.31-1.491,3.308-3.321l-0.049-24.935 C758.846,447.29,757.36,445.81,755.528,445.812z"/>
                        <path id="XMLID_4727_" style="fill:#1A1A1A;" d="M524.417,446.27l-22.326,0.044c-2.375,0.005-4.297,1.936-4.292,4.31 l0.044,22.964c0.005,2.375,1.935,4.297,4.31,4.292l22.326-0.044c2.377-0.005,4.3-1.935,4.295-4.31l-0.046-22.964 C528.722,448.187,526.795,446.264,524.417,446.27z"/>
                        <path id="XMLID_4726_" style="fill:#1A1A1A;" d="M583.602,446.151l-22.327,0.046c-2.377,0.003-4.3,1.933-4.294,4.31 l0.046,22.961c0.005,2.377,1.935,4.297,4.31,4.295l22.326-0.046c2.375-0.003,4.297-1.933,4.292-4.308l-0.044-22.964 C587.906,448.071,585.976,446.149,583.602,446.151z"/>
                        <path id="XMLID_4725_" style="fill:#1A1A1A;" d="M624.931,446.072l-22.326,0.044c-2.375,0.005-4.297,1.933-4.292,4.31 l0.044,22.961c0.005,2.377,1.935,4.3,4.31,4.295l22.327-0.044c2.375-0.005,4.297-1.935,4.294-4.31l-0.046-22.964 C629.236,447.989,627.306,446.066,624.931,446.072z"/>
                        <path id="XMLID_4724_" style="fill:#1A1A1A;" d="M666.261,445.989l-22.326,0.044c-2.377,0.005-4.297,1.935-4.295,4.31 l0.046,22.964c0.005,2.375,1.935,4.297,4.31,4.292l22.326-0.044c2.375-0.005,4.297-1.935,4.292-4.31l-0.044-22.964 C670.566,447.907,668.635,445.984,666.261,445.989z"/>
                        <path id="XMLID_4723_" style="fill:#1A1A1A;" d="M692.89,445.936l-22.326,0.046c-2.377,0.002-4.297,1.932-4.295,4.31 l0.046,22.961c0.005,2.377,1.935,4.3,4.31,4.294l22.327-0.043c2.377-0.005,4.297-1.935,4.295-4.31L697.2,450.23 C697.195,447.855,695.264,445.933,692.89,445.936z"/>
                        <path id="XMLID_4722_" style="fill:#1A1A1A;" d="M417.794,323.059l-22.326,0.044c-2.377,0.005-4.297,1.935-4.295,4.31 l0.046,22.964c0.005,2.375,1.936,4.297,4.31,4.292l22.326-0.044c2.375-0.005,4.297-1.935,4.292-4.31l-0.044-22.964 C422.1,324.977,420.169,323.054,417.794,323.059z"/>
                        <path id="XMLID_4721_" style="fill:#1A1A1A;" d="M368.078,323.157l-55.025,0.108c-2.377,0.005-4.297,1.935-4.295,4.31 l0.046,22.964c0.005,2.375,1.935,4.297,4.31,4.292l55.026-0.108c2.375-0.005,4.297-1.935,4.294-4.31l-0.046-22.964 C372.384,325.074,370.453,323.152,368.078,323.157z"/>
                        <path id="XMLID_4720_" style="fill:#1A1A1A;" d="M459.16,322.977l-22.327,0.043c-2.375,0.005-4.297,1.935-4.292,4.31 l0.044,22.964c0.005,2.375,1.935,4.297,4.31,4.292l22.329-0.044c2.375-0.005,4.297-1.935,4.292-4.31l-0.046-22.964 C463.465,324.894,461.538,322.972,459.16,322.977z"/>
                        <path id="XMLID_4719_" style="fill:#1A1A1A;" d="M500.685,322.895l-22.643,0.046c-2.287,0.002-4.14,1.863-4.135,4.151 l0.046,23.277c0.005,2.29,1.863,4.141,4.153,4.138l22.64-0.046c2.29-0.005,4.14-1.863,4.135-4.151l-0.044-23.28 C504.833,324.743,502.972,322.889,500.685,322.895z"/>
                        <path id="XMLID_4718_" style="fill:#1A1A1A;" d="M542.053,322.813l-22.643,0.046c-2.287,0.005-4.14,1.863-4.135,4.151 l0.046,23.28c0.003,2.287,1.864,4.14,4.151,4.135l22.643-0.046c2.287-0.002,4.14-1.863,4.135-4.151l-0.046-23.277 C546.199,324.661,544.341,322.81,542.053,322.813z"/>
                        <path id="XMLID_4717_" style="fill:#1A1A1A;" d="M583.419,322.733l-22.643,0.044c-2.287,0.005-4.141,1.863-4.135,4.153 l0.047,23.277c0.005,2.287,1.863,4.14,4.153,4.135l22.64-0.044c2.29-0.005,4.141-1.863,4.135-4.154l-0.047-23.277 C587.567,324.578,585.706,322.728,583.419,322.733z"/>
                        <path id="XMLID_4716_" style="fill:#1A1A1A;" d="M624.785,322.651l-22.64,0.044c-2.29,0.005-4.141,1.863-4.138,4.153 l0.046,23.277c0.005,2.29,1.864,4.14,4.153,4.135l22.64-0.044c2.29-0.005,4.143-1.864,4.138-4.153l-0.047-23.277 C628.933,324.499,627.075,322.646,624.785,322.651z"/>
                        <path id="XMLID_4715_" style="fill:#1A1A1A;" d="M666.153,322.568l-22.643,0.044c-2.287,0.005-4.14,1.866-4.135,4.153 l0.046,23.277c0.005,2.29,1.864,4.14,4.154,4.138l22.64-0.046c2.29-0.005,4.14-1.863,4.135-4.154l-0.046-23.277 C670.301,324.416,668.44,322.563,666.153,322.568z"/>
                        <path id="XMLID_4714_" style="fill:#1A1A1A;" d="M685.097,354.098l22.326-0.046c2.377-0.003,4.297-1.933,4.295-4.307 l-0.046-22.964c-0.005-2.377-1.935-4.297-4.31-4.292l-22.326,0.044c-2.375,0.003-4.297,1.933-4.292,4.31l0.044,22.961 C680.792,352.181,682.722,354.101,685.097,354.098z"/>
                        <path id="XMLID_4713_" style="fill:#1A1A1A;" d="M748.728,322.407l-22.327,0.044c-2.375,0.005-4.297,1.933-4.292,4.31 l0.046,22.961c0.005,2.378,1.933,4.3,4.31,4.295l22.324-0.044c2.377-0.005,4.3-1.935,4.295-4.31l-0.046-22.964 C753.032,324.324,751.105,322.401,748.728,322.407z"/>
                        <path id="XMLID_4712_" style="fill:#1A1A1A;" d="M763.475,326.678l0.046,22.964c0.005,2.375,1.935,4.297,4.31,4.292 l23.565-0.046c2.375-0.005,4.297-1.935,4.292-4.31l-0.044-22.964c-0.005-2.375-1.935-4.297-4.31-4.292l-23.565,0.046 C765.392,322.373,763.472,324.303,763.475,326.678z"/>
                        <path id="XMLID_4711_" style="fill:#1A1A1A;" d="M399,395.122l22.326-0.046c2.375-0.002,4.297-1.932,4.292-4.31 l-0.046-22.961c-0.003-2.375-1.933-4.297-4.31-4.295l-22.326,0.046c-2.375,0.002-4.297,1.933-4.292,4.31l0.046,22.961 C394.695,393.205,396.622,395.125,399,395.122z"/>
                        <path id="XMLID_4710_" style="fill:#1A1A1A;" d="M376.789,363.6l-63.656,0.126c-2.377,0.003-4.297,1.933-4.292,4.31 l0.044,22.961c0.005,2.375,1.935,4.297,4.31,4.295l63.656-0.126c2.377-0.005,4.297-1.935,4.294-4.31l-0.046-22.964 C381.094,365.517,379.164,363.595,376.789,363.6z"/>
                        <path id="XMLID_4709_" style="fill:#1A1A1A;" d="M440.17,395.04l22.643-0.043c2.287-0.005,4.14-1.863,4.135-4.154 l-0.046-23.277c-0.005-2.29-1.863-4.141-4.151-4.135l-22.643,0.044c-2.287,0.005-4.141,1.863-4.135,4.153l0.046,23.277 C436.024,393.192,437.882,395.045,440.17,395.04z"/>
                        <path id="XMLID_4708_" style="fill:#1A1A1A;" d="M481.5,394.958l22.642-0.044c2.287-0.005,4.14-1.863,4.135-4.154 l-0.046-23.277c-0.003-2.288-1.863-4.141-4.151-4.135l-22.643,0.044c-2.287,0.005-4.14,1.863-4.135,4.153l0.046,23.277 C477.354,393.11,479.212,394.963,481.5,394.958z"/>
                        <path id="XMLID_4707_" style="fill:#1A1A1A;" d="M522.832,394.875l22.64-0.044c2.29-0.005,4.141-1.863,4.135-4.153 l-0.046-23.277c-0.003-2.288-1.863-4.141-4.151-4.135l-22.643,0.044c-2.287,0.005-4.14,1.866-4.135,4.153l0.046,23.277 C518.684,393.03,520.542,394.88,522.832,394.875z"/>
                        <path id="XMLID_4706_" style="fill:#1A1A1A;" d="M564.161,394.796l22.64-0.046c2.29-0.003,4.14-1.863,4.135-4.151 l-0.046-23.277c-0.002-2.29-1.863-4.14-4.151-4.138l-22.642,0.046c-2.288,0.005-4.141,1.863-4.136,4.151l0.046,23.28 C560.013,392.948,561.871,394.798,564.161,394.796z"/>
                        <path id="XMLID_4705_" style="fill:#1A1A1A;" d="M605.491,394.714l22.64-0.044c2.29-0.005,4.14-1.866,4.135-4.153 l-0.046-23.277c-0.003-2.29-1.864-4.14-4.151-4.135l-22.643,0.044c-2.287,0.005-4.14,1.863-4.135,4.153l0.046,23.277 C601.343,392.866,603.201,394.719,605.491,394.714z"/>
                        <path id="XMLID_4704_" style="fill:#1A1A1A;" d="M646.821,394.631l22.64-0.044c2.29-0.005,4.141-1.863,4.135-4.153 l-0.047-23.277c-0.002-2.287-1.863-4.141-4.15-4.135l-22.643,0.044c-2.287,0.005-4.141,1.863-4.135,4.154l0.046,23.277 C642.673,392.783,644.531,394.636,646.821,394.631z"/>
                        <path id="XMLID_4703_" style="fill:#1A1A1A;" d="M688.151,394.552l22.64-0.046c2.29-0.005,4.14-1.863,4.135-4.151 l-0.044-23.28c-0.005-2.287-1.863-4.141-4.154-4.135l-22.642,0.043c-2.288,0.005-4.141,1.866-4.135,4.153l0.046,23.277 C684.002,392.704,685.861,394.554,688.151,394.552z"/>
                        <path id="XMLID_4702_" style="fill:#1A1A1A;" d="M724.039,365.859l0.051,25.675c0.003,1.627,1.323,2.943,2.951,2.94 l66.37-0.131c1.627-0.005,2.943-1.326,2.938-2.951l-0.049-25.678c-0.003-1.627-1.324-2.943-2.951-2.938l-66.372,0.131 C725.353,362.911,724.036,364.232,724.039,365.859z"/>
                        <path id="XMLID_4701_" style="fill:#1A1A1A;" d="M725.18,286.106l0.046,22.964c0.003,2.375,1.933,4.297,4.307,4.292 l62.361-0.123c2.375-0.005,4.297-1.932,4.292-4.31l-0.046-22.961c-0.003-2.377-1.933-4.297-4.31-4.295l-62.358,0.123 C727.098,281.802,725.175,283.732,725.18,286.106z"/>
                        <path id="XMLID_4700_" style="fill:#1A1A1A;" d="M419.254,435.861l22.64-0.046c2.29-0.002,4.141-1.863,4.135-4.15 l-0.044-23.277c-0.005-2.29-1.866-4.141-4.153-4.138l-22.643,0.046c-2.287,0.005-4.141,1.863-4.135,4.151l0.046,23.28 C415.106,434.013,416.964,435.866,419.254,435.861z"/>
                        <path id="XMLID_3806_" style="fill:#1A1A1A;" d="M313.274,436.069l83.988-0.165c2.377-0.005,4.3-1.935,4.295-4.31 l-0.046-22.964c-0.005-2.375-1.933-4.297-4.31-4.292l-83.988,0.164c-2.375,0.005-4.297,1.935-4.292,4.31l0.044,22.964 C308.969,434.152,310.899,436.074,313.274,436.069z"/>
                        <path id="XMLID_3805_" style="fill:#1A1A1A;" d="M460.584,435.778l22.64-0.043c2.29-0.005,4.14-1.863,4.135-4.153 l-0.046-23.277c-0.002-2.29-1.863-4.141-4.151-4.135l-22.642,0.044c-2.288,0.005-4.141,1.863-4.135,4.153l0.046,23.277 C456.436,433.931,458.294,435.784,460.584,435.778z"/>
                        <path id="XMLID_3804_" style="fill:#1A1A1A;" d="M501.914,435.696l22.64-0.044c2.29-0.005,4.14-1.863,4.138-4.153 l-0.046-23.277c-0.005-2.288-1.863-4.141-4.153-4.135l-22.64,0.044c-2.29,0.005-4.143,1.863-4.138,4.153l0.046,23.277 C497.766,433.851,499.624,435.702,501.914,435.696z"/>
                        <path id="XMLID_3803_" style="fill:#1A1A1A;" d="M543.243,435.617l22.64-0.046c2.29-0.005,4.141-1.863,4.135-4.151 l-0.044-23.28c-0.005-2.288-1.866-4.141-4.153-4.135l-22.64,0.044c-2.29,0.005-4.14,1.866-4.138,4.153l0.047,23.277 C539.095,433.769,540.953,435.619,543.243,435.617z"/>
                        <path id="XMLID_3802_" style="fill:#1A1A1A;" d="M584.573,435.534l22.64-0.046c2.29-0.003,4.14-1.863,4.138-4.151 l-0.046-23.277c-0.005-2.29-1.864-4.14-4.154-4.138l-22.64,0.046c-2.29,0.005-4.143,1.863-4.138,4.151l0.046,23.28 C580.425,433.686,582.283,435.539,584.573,435.534z"/>
                        <path id="XMLID_3801_" style="fill:#1A1A1A;" d="M625.903,435.452l22.64-0.044c2.29-0.005,4.141-1.863,4.135-4.153 l-0.044-23.277c-0.005-2.29-1.866-4.14-4.153-4.135l-22.64,0.044c-2.29,0.005-4.141,1.863-4.138,4.154l0.046,23.277 C621.755,433.604,623.613,435.457,625.903,435.452z"/>
                        <path id="XMLID_3800_" style="fill:#1A1A1A;" d="M667.232,435.37l22.64-0.044c2.29-0.005,4.141-1.863,4.138-4.153 l-0.046-23.277c-0.005-2.287-1.864-4.14-4.153-4.135l-22.64,0.044c-2.29,0.005-4.14,1.863-4.138,4.153l0.047,23.277 C663.084,433.524,664.942,435.375,667.232,435.37z"/>
                        <path id="XMLID_3799_" style="fill:#1A1A1A;" d="M704.36,406.675l0.052,25.678c0.002,1.627,1.324,2.943,2.95,2.937 l86.129-0.169c1.627-0.002,2.943-1.324,2.94-2.95l-0.052-25.675c-0.002-1.627-1.324-2.943-2.95-2.94l-86.129,0.169 C705.673,403.729,704.357,405.05,704.36,406.675z"/>
                      </g>
                      <rect id="XMLID_3797_" x="511.14" y="446.115" transform="matrix(1 -0.002 0.002 1 -0.9073 1.1861)" style="fill:#1A1A1A;" width="182.929" height="31.566"/>
                    </g>
                  </g>
                </g>
                <defs>
                  <filter id="Adobe_OpacityMaskFilter" filterUnits="userSpaceOnUse" x="265.072" y="226.552" width="596.259" height="421.48">
                    <feFlood style="flood-color:white;flood-opacity:1" result="back"/>
                    <feBlend in="SourceGraphic" in2="back" mode="normal"/>
                  </filter>
                </defs>
                <mask maskUnits="userSpaceOnUse" x="265.072" y="226.552" width="596.259" height="421.48" id="XMLID_00000147207279840938101440000013819239479162128543_">
                  <g id="XMLID_215_" style="filter:url(#Adobe_OpacityMaskFilter);">
                    <defs>
                      <filter id="Adobe_OpacityMaskFilter_00000017491430534904557360000001159975825618758844_" filterUnits="userSpaceOnUse" x="265.072" y="226.552" width="596.259" height="421.48">
                        <feFlood style="flood-color:white;flood-opacity:1" result="back"/>
                        <feBlend in="SourceGraphic" in2="back" mode="normal"/>
                      </filter>
                    </defs>
                    <mask maskUnits="userSpaceOnUse" x="265.072" y="226.552" width="596.259" height="421.48" id="XMLID_00000147207279840938101440000013819239479162128543_">
                      <g id="XMLID_1398_" style="filter:url(#Adobe_OpacityMaskFilter_00000017491430534904557360000001159975825618758844_);"/>
                    </mask>
                    <linearGradient id="XMLID_00000106832797267268230430000010280579715615025554_" gradientUnits="userSpaceOnUse" x1="155.0768" y1="615.3747" x2="833.1844" y2="615.3747" gradientTransform="matrix(0.9641 0.2656 -0.2656 0.9641 267.6989 -357.9139)">
                      <stop offset="0.1668" style="stop-color:#999999"/>
                      <stop offset="0.2606" style="stop-color:#949494"/>
                      <stop offset="0.3707" style="stop-color:#868686"/>
                      <stop offset="0.4889" style="stop-color:#6E6E6E"/>
                      <stop offset="0.6129" style="stop-color:#4D4D4D"/>
                      <stop offset="0.74" style="stop-color:#232323"/>
                      <stop offset="0.8326" style="stop-color:#000000"/>
                    </linearGradient>
                    <path id="XMLID_216_" style="mask:url(#XMLID_00000147207279840938101440000013819239479162128543_);fill:url(#XMLID_00000106832797267268230430000010280579715615025554_);" d=" M861.331,620.566l-0.725-367.626c-0.026-12.617-8.571-23.218-20.18-26.387L275.1,228.218 c-0.432,0.26-8.116,2.457-10.028,7.297l568.934,412.518C849.131,647.983,861.362,635.696,861.331,620.566z"/>
                  </g>
                </mask>
                <linearGradient id="XMLID_00000005229800677503975090000011555605304257534344_" gradientUnits="userSpaceOnUse" x1="155.0768" y1="615.3747" x2="833.1844" y2="615.3747" gradientTransform="matrix(0.9641 0.2656 -0.2656 0.9641 267.6989 -357.9139)">
                  <stop offset="0.1668" style="stop-color:#000000"/>
                  <stop offset="0.2369" style="stop-color:#050505"/>
                  <stop offset="0.3193" style="stop-color:#131313"/>
                  <stop offset="0.4078" style="stop-color:#2B2B2B"/>
                  <stop offset="0.5006" style="stop-color:#4C4C4C"/>
                  <stop offset="0.5969" style="stop-color:#767676"/>
                  <stop offset="0.696" style="stop-color:#AAAAAA"/>
                  <stop offset="0.7956" style="stop-color:#E7E7E7"/>
                  <stop offset="0.8326" style="stop-color:#FFFFFF"/>
                </linearGradient>
                <path id="XMLID_3707_" style="opacity:0.56;fill:url(#XMLID_00000005229800677503975090000011555605304257534344_);" d=" M861.331,620.566l-0.725-367.626c-0.026-12.617-8.571-23.218-20.18-26.387L275.1,228.218 c-0.432,0.26-8.116,2.457-10.028,7.297l568.934,412.518C849.131,647.983,861.362,635.696,861.331,620.566z"/>
              </g>
            </g>
            <g id="XMLID_2783_">
              <g id="XMLID_2784_">
                <polygon id="XMLID_3697_" style="fill:#CCCCCC;" points="823.869,152.965 279.708,154.122 285.134,163.061 819.49,161.622 &#10;&#9;&#9;&#9;&#9;&#9;&#9;&#9;&#9;&#9;&#9;&#9;&#9;&#9;&#9;&#9;"/>
                <polygon id="XMLID_3696_" style="fill:#7990BD;" points="581.206,162.4 532.444,162.531 531.616,153.461 581.301,153.356 &#10;&#9;&#9;&#9;&#9;&#9;&#9;&#9;&#9;&#9;&#9;&#9;&#9;&#9;&#9;&#9;"/>
                <polygon id="XMLID_3695_" style="fill:#7990BD;" points="828.984,141.074 272.24,141.816 254.776,113.044 842.965,113.345 &#10;&#9;&#9;&#9;&#9;&#9;&#9;&#9;&#9;&#9;&#9;&#9;&#9;&#9;&#9;&#9;"/>
                <polygon id="XMLID_3694_" style="fill:#7990BD;" points="807.567,198.127 516.638,199.615 512.245,166.942 824.291,166.008 &#10;&#9;&#9;&#9;&#9;&#9;&#9;&#9;&#9;&#9;&#9;&#9;&#9;&#9;&#9;&#9;"/>
                <g id="XMLID_3689_">
                  <path id="XMLID_3693_" style="fill:#E3E3E3;" d="M659.751,185.164l-9.193-3.585c-0.645-0.309-1.992-0.514-3.583-0.506 c-1.593,0.005-3.005,0.224-3.745,0.535l-10.329,3.67l-13.922,4.945l26.611-0.121l26.516-0.121L659.751,185.164z"/>
                  <path id="XMLID_3691_" style="fill:#E3E3E3;" d="M691.939,183.65l-11.447-4.621c-0.799-0.393-2.508-0.661-4.547-0.653 c-2.043,0.008-3.868,0.288-4.842,0.689l-13.49,4.726l-18.099,6.338l33.938-0.154l33.784-0.154L691.939,183.65z"/>
                  <path id="XMLID_3690_" style="fill:#E3E3E3;" d="M706.133,177.114c-0.239,0.864-3.369,1.573-6.988,1.586 c-3.621,0.013-6.381-0.673-6.166-1.537c0.218-0.866,3.352-1.583,6.996-1.596 C703.62,175.554,706.375,176.248,706.133,177.114z"/>
                </g>
                <polygon id="XMLID_3600_" style="fill:#516974;" points="473.828,175.202 337.019,175.685 336.929,175.51 473.789,175.032 &#10;&#9;&#9;&#9;&#9;&#9;&#9;&#9;&#9;&#9;&#9;&#9;&#9;&#9;&#9;&#9;"/>
                <polygon id="XMLID_3599_" style="fill:#516974;" points="474.604,178.746 338.846,179.255 338.759,179.083 474.568,178.576 &#10;&#9;&#9;&#9;&#9;&#9;&#9;&#9;&#9;&#9;&#9;&#9;&#9;&#9;&#9;&#9;"/>
                <polygon id="XMLID_2800_" style="fill:#516974;" points="475.367,182.234 340.648,182.771 340.563,182.601 475.331,182.069 &#10;&#9;&#9;&#9;&#9;&#9;&#9;&#9;&#9;&#9;&#9;&#9;&#9;&#9;&#9;&#9;"/>
                <polygon id="XMLID_2799_" style="fill:#516974;" points="476.12,185.672 342.422,186.233 342.337,186.068 476.084,185.508 &#10;&#9;&#9;&#9;&#9;&#9;&#9;&#9;&#9;&#9;&#9;&#9;&#9;&#9;&#9;&#9;"/>
                <polygon id="XMLID_2798_" style="fill:#516974;" points="476.863,189.057 344.169,189.643 344.087,189.481 476.827,188.895 &#10;&#9;&#9;&#9;&#9;&#9;&#9;&#9;&#9;&#9;&#9;&#9;&#9;&#9;&#9;&#9;"/>
                <polygon id="XMLID_2797_" style="fill:#516974;" points="477.593,192.393 345.891,193.005 345.809,192.845 477.557,192.236 &#10;&#9;&#9;&#9;&#9;&#9;&#9;&#9;&#9;&#9;&#9;&#9;&#9;&#9;&#9;&#9;"/>
                <g id="XMLID_2793_">
                  <path id="XMLID_2796_" style="fill:#FFFFFF;" d="M277.138,117.411c0.105,0.188-0.388,0.339-1.103,0.339 c-0.712,0-1.377-0.152-1.485-0.339c-0.108-0.188,0.385-0.339,1.1-0.339S277.03,117.223,277.138,117.411z"/>
                  <path id="XMLID_2795_" style="fill:#FFFFFF;" d="M283.276,117.413c0.105,0.185-0.388,0.337-1.1,0.337 c-0.714,0-1.378-0.152-1.483-0.337c-0.105-0.188,0.388-0.339,1.103-0.339C282.51,117.074,283.173,117.226,283.276,117.413z"/>
                  <path id="XMLID_2794_" style="fill:#FFFFFF;" d="M289.413,117.413c0.1,0.188-0.394,0.34-1.105,0.34 c-0.714,0-1.375-0.152-1.478-0.34c-0.103-0.188,0.393-0.339,1.105-0.339C288.65,117.074,289.31,117.226,289.413,117.413z"/>
                </g>
                <g id="XMLID_2789_">
                  <path id="XMLID_2792_" style="fill:#FFFFFF;" d="M824.275,116.385c-0.031,0.067-0.254,0.121-0.498,0.121l-10.337-0.002 c-0.244,0-0.419-0.054-0.388-0.121l0,0c0.029-0.067,0.252-0.121,0.499-0.121l10.34,0.002 C824.134,116.264,824.306,116.318,824.275,116.385L824.275,116.385z"/>
                  <path id="XMLID_2791_" style="fill:#FFFFFF;" d="M824.031,116.902c-0.031,0.067-0.255,0.121-0.499,0.121l-10.324-0.003 c-0.247,0-0.422-0.054-0.391-0.121l0,0c0.031-0.067,0.255-0.121,0.499-0.121l10.329,0.003 C823.89,116.781,824.065,116.835,824.031,116.902L824.031,116.902z"/>
                  <path id="XMLID_2790_" style="fill:#FFFFFF;" d="M823.79,117.418c-0.031,0.064-0.255,0.118-0.498,0.118l-10.316-0.002 c-0.244,0-0.419-0.054-0.388-0.118l0,0c0.028-0.067,0.252-0.121,0.496-0.121l10.321,0.003 C823.648,117.298,823.82,117.352,823.79,117.418L823.79,117.418z"/>
                </g>
                <polygon id="XMLID_2788_" style="fill:#E3E3E3;" points="413.518,128.629 281.032,128.694 276.044,120.012 410.794,120.019 &#10;&#9;&#9;&#9;&#9;&#9;&#9;&#9;&#9;&#9;&#9;&#9;&#9;&#9;&#9;&#9;"/>
                <polygon id="XMLID_2787_" style="fill:#E3E3E3;" points="416.088,136.748 285.733,136.882 282.363,131.014 414.245,130.93 &#10;&#9;&#9;&#9;&#9;&#9;&#9;&#9;&#9;&#9;&#9;&#9;&#9;&#9;&#9;&#9;"/>
                <polygon id="XMLID_2786_" style="fill:#516974;" points="638.429,149.264 531.251,149.465 530.778,144.253 639.085,144.088 &#10;&#9;&#9;&#9;&#9;&#9;&#9;&#9;&#9;&#9;&#9;&#9;&#9;&#9;&#9;&#9;"/>
                <polygon id="XMLID_2785_" style="fill:#272525;" points="573.373,158.841 539.396,158.926 539.237,156.836 573.36,156.756 &#10;&#9;&#9;&#9;&#9;&#9;&#9;&#9;&#9;&#9;&#9;&#9;&#9;&#9;&#9;&#9;"/>
              </g>
            </g>
          </g>
          <path id="XMLID_2781_" style="fill:#F3DFC9;" d="M570.173,802.972c-3.531,63.902,10.147,107.544,43.563,109.403 c33.412,1.857,45.455-59.179,49-123.079c3.564-63.898-13.423-115.153-46.834-117.012 C582.47,670.438,573.737,739.074,570.173,802.972z"/>
          <path style="fill:#F3DFC9;" d="M491.434,936.526c0.523,40.694,7.757,126.351,12.869,185.474h133.214 c-25.178-143.289-0.734-226.182-0.734-226.182s12.105-169.921,10.274-187.671c-1.832-17.75-21.65-71.506-21.65-71.506 l-54.926,18.881l22.171,84.312l-27.414-7.586c-14.139-3.913-25.907-15.77-25.334-30.429l-11.457-43.748 c-26.171,8.272-55.364,20.083-61.231,23.758c-6.162,3.859-9.372,23.38-9.372,23.38c-15.111,2.492-18.086,16.849-18.086,16.849 s0,0-17.684,17.932c-17.686,17.933-2.682,35.403-2.682,35.403l61.175,118.085C487.468,906.794,491.242,921.528,491.434,936.526z "/>
          <path style="fill:#F3DFC9;" d="M491.434,936.526c0.523,40.694,3.329,129.323-2.349,185.474h148.431 c-25.178-143.289-0.734-226.182-0.734-226.182s12.105-169.921,10.274-187.671c-1.832-17.75-21.65-71.506-21.65-71.506 l-54.926,18.881l22.171,84.312l-27.414-7.586c-14.139-3.913-25.907-15.77-25.334-30.429l-11.457-43.748 c-26.171,8.272-55.364,20.083-61.231,23.758c-6.162,3.859-9.372,23.38-9.372,23.38c-15.111,2.492-18.086,16.849-18.086,16.849 s0,0-17.684,17.932c-17.686,17.933-2.682,35.403-2.682,35.403l61.175,118.085C487.468,906.794,491.242,921.528,491.434,936.526z "/>
          <path id="XMLID_2780_" style="fill:#F3DFC9;" d="M655.6,711.947c0,0-24.99-62.869-27.688-71.003 c-2.698-8.134-33.164,43.163-33.164,43.163L655.6,711.947z"/>
          <path id="XMLID_2779_" style="fill:#F3DFC9;" d="M570.482,655.522c4.141,11.673,19.974,16.677,35.396,11.221 c15.407-5.462,24.534-19.355,20.411-31.007l-13.046-35.514c-4.737-13.387-6.864-28.887-16.228-40.147 c-8.976-10.792-23.38-6.972-30.351,3.926c-9.266,14.488-5.049,37.081-2.777,52.8L570.482,655.522z"/>
        </g>
      </g>
      <g>
        <defs>
          <path id="SVGID_1_" d="M491.434,936.526c-44.308,80.054-5.291,128.825,12.869,185.474h133.214 c-25.178-143.289-0.734-226.182-0.734-226.182s12.105-169.921,10.274-187.671c-1.832-17.75-21.65-71.506-21.65-71.506 l-54.926,18.881l22.171,84.312l-27.414-7.586c-14.139-3.913-25.907-15.77-25.334-30.429l-11.457-43.748 c-26.171,8.272-55.364,20.083-61.231,23.758c-6.162,3.859-9.372,23.38-9.372,23.38c-15.111,2.492-18.086,16.849-18.086,16.849 s0,0-17.684,17.932c-17.686,17.933-2.682,35.403-2.682,35.403l61.175,118.085C487.468,906.794,498.697,923.403,491.434,936.526z "/>
        </defs>
        <clipPath id="SVGID_00000174601990395220639130000013825542087113123968_">
          <path d="M491.434,936.526c-44.308,80.054-5.291,128.825,12.869,185.474h133.214 c-25.178-143.289-0.734-226.182-0.734-226.182s12.105-169.921,10.274-187.671c-1.832-17.75-21.65-71.506-21.65-71.506 l-54.926,18.881l22.171,84.312l-27.414-7.586c-14.139-3.913-25.907-15.77-25.334-30.429l-11.457-43.748 c-26.171,8.272-55.364,20.083-61.231,23.758c-6.162,3.859-9.372,23.38-9.372,23.38c-15.111,2.492-18.086,16.849-18.086,16.849 s0,0-17.684,17.932c-17.686,17.933-2.682,35.403-2.682,35.403l61.175,118.085C487.468,906.794,498.697,923.403,491.434,936.526z " style="overflow: visible;"/>
        </clipPath>
        <g id="XMLID_1910_" style="clip-path:url(#SVGID_00000174601990395220639130000013825542087113123968_);">
          <polygon id="XMLID_2778_" style="fill-rule:evenodd;clip-rule:evenodd;fill:#755538;" points="592.185,1032.993 &#10;&#9;&#9;&#9;&#9;&#9;627.182,1032.833 626.439,979.805 591.909,979.962 &#9;&#9;&#9;&#9;"/>
          <g id="XMLID_1911_">
            <g id="XMLID_2749_">
              <polygon id="XMLID_2750_" style="fill:#6F5132;" points="470.452,1004.77 451.892,1035.279 470.318,1035.285 &#9;&#9;&#9;&#9;&#9;&#9;"/>
            </g>
            <g id="XMLID_2748_"/>
            <g id="XMLID_2740_" style="opacity:0.22;">
              <rect id="XMLID_2747_" x="570.297" y="999.416" transform="matrix(0.0052 1 -1 0.0052 1600.1628 404.4414)" style="opacity:0.68;fill-rule:evenodd;clip-rule:evenodd;fill:#D6D6D8;" width="53.029" height="14.075"/>
              <polygon id="XMLID_2746_" style="opacity:0.6543;fill-rule:evenodd;clip-rule:evenodd;fill:#D6D6D8;" points="&#10;&#9;&#9;&#9;&#9;&#9;&#9;&#9;587.053,1033.331 586.987,980.076 572.151,980.129 572.216,1033.386 &#9;&#9;&#9;&#9;&#9;&#9;"/>
              <polygon id="XMLID_2745_" style="opacity:0.6286;fill-rule:evenodd;clip-rule:evenodd;fill:#D6D6D8;" points="&#10;&#9;&#9;&#9;&#9;&#9;&#9;&#9;570.118,1033.733 570.262,980.25 554.665,980.283 554.52,1033.768 &#9;&#9;&#9;&#9;&#9;&#9;"/>
              <polygon id="XMLID_2744_" style="opacity:0.6029;fill-rule:evenodd;clip-rule:evenodd;fill:#D6D6D8;" points="&#10;&#9;&#9;&#9;&#9;&#9;&#9;&#9;553.183,1034.135 553.537,980.424 537.179,980.438 536.825,1034.15 &#9;&#9;&#9;&#9;&#9;&#9;"/>
              <polygon id="XMLID_2743_" style="opacity:0.5771;fill-rule:evenodd;clip-rule:evenodd;fill:#D6D6D8;" points="&#10;&#9;&#9;&#9;&#9;&#9;&#9;&#9;536.248,1034.537 536.812,980.597 519.694,980.591 519.129,1034.531 &#9;&#9;&#9;&#9;&#9;&#9;"/>
              <polygon id="XMLID_2742_" style="opacity:0.5514;fill-rule:evenodd;clip-rule:evenodd;fill:#D6D6D8;" points="&#10;&#9;&#9;&#9;&#9;&#9;&#9;&#9;519.313,1034.938 520.087,980.771 502.207,980.745 501.434,1034.913 &#9;&#9;&#9;&#9;&#9;&#9;"/>
              <polygon id="XMLID_2741_" style="opacity:0.5257;fill-rule:evenodd;clip-rule:evenodd;fill:#D6D6D8;" points="&#10;&#9;&#9;&#9;&#9;&#9;&#9;&#9;503.363,980.947 484.972,980.9 484.714,981.325 483.738,1035.294 502.378,1035.341 &#9;&#9;&#9;&#9;&#9;&#9;"/>
            </g>
            <g id="XMLID_1912_">
              <linearGradient id="XMLID_00000038384831137456011390000001904505310326608568_" gradientUnits="userSpaceOnUse" x1="-363.3804" y1="704.3007" x2="-363.3804" y2="726.1385" gradientTransform="matrix(0.0073 -1 1 0.0073 -175.8754 576.3773)">
                <stop offset="0" style="stop-color:#737373"/>
                <stop offset="0.0815" style="stop-color:#7F7F7F"/>
                <stop offset="0.2281" style="stop-color:#9E9E9E"/>
                <stop offset="0.4217" style="stop-color:#D1D1D1"/>
                <stop offset="0.4758" style="stop-color:#E0E0E0"/>
                <stop offset="0.6834" style="stop-color:#AAABAC"/>
                <stop offset="0.9364" style="stop-color:#6D6E70"/>
              </linearGradient>
              <path id="XMLID_2739_" style="fill:url(#XMLID_00000038384831137456011390000001904505310326608568_);" d="M547.629,942.34 l-0.047,6.531l-21.835-0.158l0.045-6.532c0.004-0.605,0.498-1.093,1.104-1.088l19.645,0.142 C547.146,941.24,547.633,941.734,547.629,942.34z"/>
              <linearGradient id="SVGID_00000057107332850372424810000017455092450344391565_" gradientUnits="userSpaceOnUse" x1="474.5744" y1="1008.1229" x2="622.0836" y2="1009.1937">
                <stop offset="0" style="stop-color:#0B0B0B"/>
                <stop offset="0.0408" style="stop-color:#1A1A1A"/>
                <stop offset="0.1317" style="stop-color:#343434"/>
                <stop offset="0.2242" style="stop-color:#484848"/>
                <stop offset="0.3186" style="stop-color:#535353"/>
                <stop offset="0.4176" style="stop-color:#575757"/>
                <stop offset="0.5424" style="stop-color:#515151"/>
                <stop offset="0.7068" style="stop-color:#414141"/>
                <stop offset="0.7859" style="stop-color:#363636"/>
                <stop offset="0.8139" style="stop-color:#2A2A2A"/>
                <stop offset="0.8647" style="stop-color:#0A0A0A"/>
                <stop offset="0.878" style="stop-color:#000000"/>
              </linearGradient>
              <circle style="fill:url(#SVGID_00000057107332850372424810000017455092450344391565_);" cx="537.589" cy="1008.58" r="63.016"/>
              <path id="XMLID_2738_" style="fill:#282828;" d="M537.999,952.436c30.873,0.224,55.719,25.432,55.496,56.303 c-0.223,30.872-25.431,55.719-56.304,55.495c-30.872-0.224-55.718-25.43-55.495-56.303 C481.919,977.058,507.127,952.213,537.999,952.436z"/>
              <g id="XMLID_2713_">
                <path id="XMLID_2737_" style="fill:#DEDEE0;" d="M537.97,956.364c28.704,0.207,51.804,23.644,51.597,52.347 c-0.209,28.703-23.645,51.803-52.348,51.596c-28.703-0.208-51.803-23.645-51.596-52.348 C485.831,979.256,509.268,956.156,537.97,956.364z"/>
                <path id="XMLID_2736_" style="fill:#DFDFE1;" d="M537.97,956.504c28.626,0.206,51.664,23.579,51.457,52.206 c-0.207,28.627-23.581,51.664-52.206,51.456c-28.625-0.207-51.664-23.58-51.457-52.206 C485.971,979.334,509.345,956.296,537.97,956.504z"/>
                <path id="XMLID_2735_" style="fill:#E0E0E2;" d="M537.969,956.644c28.549,0.207,51.525,23.517,51.318,52.065 c-0.206,28.548-23.518,51.524-52.066,51.317c-28.548-0.206-51.523-23.516-51.317-52.064 C486.11,979.413,509.42,956.437,537.969,956.644z"/>
                <path id="XMLID_2734_" style="fill:#E1E1E3;" d="M537.969,956.784c28.47,0.205,51.383,23.452,51.178,51.923 c-0.206,28.471-23.453,51.384-51.924,51.178c-28.472-0.205-51.385-23.452-51.179-51.924 C486.25,979.491,509.498,956.578,537.969,956.784z"/>
                <path id="XMLID_2733_" style="fill:#E2E2E3;" d="M537.968,956.924c28.393,0.205,51.243,23.389,51.039,51.783 c-0.206,28.394-23.391,51.245-51.783,51.039c-28.393-0.205-51.245-23.389-51.039-51.782 C486.39,979.569,509.573,956.718,537.968,956.924z"/>
                <path id="XMLID_2732_" style="fill:#E3E3E4;" d="M537.966,957.064c28.317,0.205,51.105,23.325,50.9,51.642 c-0.205,28.314-23.325,51.104-51.642,50.899c-28.316-0.204-51.104-23.325-50.899-51.642 C486.528,979.648,509.651,956.86,537.966,957.064z"/>
                <path id="XMLID_2731_" style="fill:#E4E4E5;" d="M537.966,957.205c28.237,0.204,50.964,23.261,50.76,51.501 c-0.204,28.238-23.261,50.964-51.499,50.76c-28.24-0.204-50.966-23.261-50.762-51.5 C486.669,979.726,509.726,957.001,537.966,957.205z"/>
                <path id="XMLID_2730_" style="fill:#E5E5E6;" d="M537.963,957.345c28.162,0.204,50.826,23.197,50.622,51.359 c-0.204,28.162-23.197,50.826-51.359,50.622c-28.161-0.204-50.826-23.198-50.622-51.359 C486.809,979.805,509.803,957.141,537.963,957.345z"/>
                <path id="XMLID_2729_" style="fill:#E6E6E7;" d="M537.963,957.485c28.084,0.204,50.686,23.134,50.482,51.218 c-0.202,28.082-23.135,50.685-51.218,50.482c-28.084-0.203-50.685-23.134-50.483-51.218 C486.948,979.884,509.879,957.281,537.963,957.485z"/>
                <path id="XMLID_2728_" style="fill:#E7E7E8;" d="M537.963,957.625c28.005,0.203,50.545,23.071,50.342,51.076 c-0.202,28.007-23.07,50.546-51.076,50.344c-28.006-0.203-50.545-23.071-50.344-51.077 C487.088,979.962,509.956,957.422,537.963,957.625z"/>
                <path id="XMLID_2727_" style="fill:#E8E8E9;" d="M537.961,957.764c27.929,0.203,50.406,23.007,50.204,50.936 c-0.202,27.93-23.006,50.407-50.936,50.204c-27.929-0.201-50.406-23.006-50.203-50.935 C487.228,980.041,510.032,957.563,537.961,957.764z"/>
                <path id="XMLID_2726_" style="fill:#E9E9EA;" d="M537.96,957.905c27.852,0.202,50.266,22.943,50.064,50.795 c-0.202,27.852-22.942,50.266-50.794,50.065c-27.851-0.202-50.266-22.942-50.065-50.794 C487.368,980.119,510.109,957.704,537.96,957.905z"/>
                <path id="XMLID_2725_" style="fill:#E9E9EA;" d="M537.959,958.045c27.774,0.201,50.127,22.879,49.926,50.654 c-0.201,27.774-22.88,50.126-50.654,49.926c-27.774-0.201-50.126-22.88-49.925-50.654 C487.507,980.198,510.185,957.845,537.959,958.045z"/>
                <path id="XMLID_2724_" style="fill:#EAEAEB;" d="M537.958,958.186c27.696,0.2,49.986,22.815,49.787,50.513 c-0.201,27.695-22.816,49.986-50.512,49.786c-27.697-0.201-49.988-22.816-49.787-50.513 C487.646,980.276,510.261,957.986,537.958,958.186z"/>
                <path id="XMLID_2723_" style="fill:#EBEBEC;" d="M537.957,958.326c27.619,0.2,49.847,22.751,49.647,50.37 c-0.201,27.62-22.752,49.848-50.371,49.647c-27.619-0.199-49.846-22.751-49.647-50.37 C487.785,980.354,510.337,958.126,537.957,958.326z"/>
                <path id="XMLID_2722_" style="fill:#ECECED;" d="M537.956,958.467c27.542,0.199,49.708,22.688,49.509,50.229 c-0.199,27.542-22.687,49.707-50.23,49.508c-27.542-0.199-49.707-22.688-49.507-50.229 C487.926,980.432,510.414,958.267,537.956,958.467z"/>
                <path id="XMLID_2721_" style="fill:#EDEDEE;" d="M537.955,958.607c27.465,0.199,49.567,22.624,49.369,50.089 c-0.199,27.463-22.625,49.566-50.088,49.367c-27.466-0.198-49.569-22.623-49.37-50.087 C488.065,980.51,510.49,958.408,537.955,958.607z"/>
                <path id="XMLID_2720_" style="fill:#EEEEEF;" d="M537.954,958.747c27.387,0.197,49.428,22.559,49.23,49.946 c-0.198,27.388-22.56,49.428-49.947,49.229c-27.387-0.197-49.429-22.56-49.23-49.947 C488.205,980.589,510.567,958.548,537.954,958.747z"/>
                <path id="XMLID_2719_" style="fill:#EFEFF0;" d="M537.953,958.887c27.31,0.196,49.288,22.495,49.09,49.805 c-0.197,27.309-22.496,49.289-49.805,49.091c-27.31-0.198-49.288-22.497-49.092-49.807 C488.345,980.668,510.643,958.688,537.953,958.887z"/>
                <path id="XMLID_2718_" style="fill:#F0F0F1;" d="M537.952,959.027c27.232,0.197,49.149,22.432,48.952,49.664 c-0.197,27.233-22.433,49.149-49.666,48.952c-27.232-0.197-49.147-22.432-48.952-49.664 C488.484,980.746,510.72,958.83,537.952,959.027z"/>
                <path id="XMLID_2717_" style="fill:#F1F1F1;" d="M537.951,959.167c27.154,0.197,49.008,22.369,48.811,49.524 c-0.196,27.155-22.368,49.008-49.523,48.813c-27.153-0.197-49.009-22.37-48.812-49.524 C488.624,980.824,510.796,958.971,537.951,959.167z"/>
                <path id="XMLID_2716_" style="fill:#F2F2F2;" d="M537.95,959.307c27.077,0.197,48.869,22.306,48.672,49.383 c-0.196,27.076-22.303,48.869-49.381,48.673c-27.078-0.196-48.869-22.306-48.674-49.383 C488.763,980.903,510.873,959.111,537.95,959.307z"/>
                <path id="XMLID_2715_" style="fill:#F3F3F3;" d="M537.948,959.447c27,0.196,48.73,22.242,48.534,49.242 c-0.194,27-22.242,48.728-49.241,48.534c-27-0.195-48.729-22.24-48.534-49.241 C488.903,980.982,510.95,959.252,537.948,959.447z"/>
                <path id="XMLID_2714_" style="fill:#F4F4F4;" d="M537.948,959.587c26.922,0.195,48.589,22.178,48.395,49.101 c-0.194,26.922-22.177,48.589-49.099,48.394c-26.923-0.195-48.591-22.178-48.395-49.1 C489.043,981.06,511.026,959.393,537.948,959.587z"/>
              </g>
              <path id="XMLID_2712_" style="fill:#4A494D;" d="M537.637,1002.575c3.181,0.022,5.741,2.621,5.718,5.801 c-0.022,3.182-2.62,5.742-5.801,5.718c-3.182-0.023-5.741-2.621-5.719-5.802 C531.858,1005.112,534.456,1002.552,537.637,1002.575z"/>
              <rect id="XMLID_2711_" x="526.163" y="1003.836" transform="matrix(-0.7019 -0.7123 0.7123 -0.7019 174.2654 2107.4319)" style="fill:#4A494D;" width="3.995" height="26.823"/>
              <polygon id="XMLID_2710_" style="fill:#4A494D;" points="539.67,1008.056 529.416,966.292 525.535,967.24 535.79,1009.004 &#10;&#9;&#9;&#9;&#9;&#9;&#9;&#9;&#9;&#9;&#9;&#9;&#9;&#9;"/>
              <g id="XMLID_2707_">
                <rect id="XMLID_2709_" x="493.16" y="1001.675" transform="matrix(0.0068 -1 1 0.0068 -516.1775 1494.9725)" style="fill:#BFBFBF;" width="2.723" height="11.339"/>
                <rect id="XMLID_2708_" x="579.317" y="1002.299" transform="matrix(0.0074 -1 1 0.0074 -431.5482 1581.1898)" style="fill:#BFBFBF;" width="2.723" height="11.339"/>
              </g>
              <g id="XMLID_2704_">
                <rect id="XMLID_2706_" x="536.55" y="958.909" transform="matrix(1 0.0071 -0.0071 1 6.8165 -3.7699)" style="fill:#BFBFBF;" width="2.723" height="11.339"/>
                <rect id="XMLID_2705_" x="535.927" y="1045.065" transform="matrix(1 0.0072 -0.0072 1 7.5403 -3.8217)" style="fill:#BFBFBF;" width="2.723" height="11.339"/>
              </g>
              <g id="XMLID_2701_">
                <rect id="XMLID_2703_" x="566.92" y="971.747" transform="matrix(0.7018 0.7123 -0.7123 0.7018 865.671 -113.3843)" style="fill:#BFBFBF;" width="2.723" height="11.337"/>
                <rect id="XMLID_2702_" x="505.558" y="1032.228" transform="matrix(0.7019 0.7123 -0.7123 0.7019 890.4508 -51.6445)" style="fill:#BFBFBF;" width="2.723" height="11.338"/>
              </g>
              <g id="XMLID_2698_">
                <rect id="XMLID_2700_" x="566.48" y="1032.668" transform="matrix(-0.7124 0.7018 -0.7018 -0.7124 1701.0602 1379.5137)" style="fill:#BFBFBF;" width="2.722" height="11.339"/>
                <rect id="XMLID_2699_" x="505.998" y="971.306" transform="matrix(-0.7121 0.7021 -0.7021 -0.7121 1554.5599 1316.4832)" style="fill:#BFBFBF;" width="2.723" height="11.338"/>
              </g>
              <g id="XMLID_2695_">
                <rect id="XMLID_2697_" x="496.389" y="985.622" transform="matrix(0.38 -0.925 0.925 0.38 -608.3273 1074.9935)" style="fill:#BFBFBF;" width="2.723" height="11.338"/>
                <rect id="XMLID_2696_" x="576.089" y="1018.352" transform="matrix(0.3798 -0.925 0.925 0.3798 -589.1631 1169.2159)" style="fill:#BFBFBF;" width="2.723" height="11.339"/>
              </g>
              <g id="XMLID_2692_">
                <rect id="XMLID_2694_" x="519.633" y="962.237" transform="matrix(0.9227 -0.3854 0.3854 0.9227 -332.8022 275.5845)" style="fill:#BFBFBF;" width="2.722" height="11.339"/>
                <rect id="XMLID_2693_" x="552.845" y="1041.736" transform="matrix(0.9228 -0.3853 0.3853 0.9228 -360.7938 294.4264)" style="fill:#BFBFBF;" width="2.723" height="11.339"/>
              </g>
              <g id="XMLID_2689_">
                <rect id="XMLID_2691_" x="575.988" y="985.381" transform="matrix(0.3855 0.9227 -0.9227 0.3855 1269.2734 76.3067)" style="fill:#BFBFBF;" width="2.723" height="11.338"/>
                <rect id="XMLID_2690_" x="496.489" y="1018.593" transform="matrix(0.3853 0.9228 -0.9228 0.3853 1251.2227 170.2139)" style="fill:#BFBFBF;" width="2.722" height="11.339"/>
              </g>
              <g id="XMLID_1913_">
                <rect id="XMLID_2688_" x="552.604" y="962.137" transform="matrix(0.925 0.3799 -0.3799 0.925 409.2169 -137.8944)" style="fill:#BFBFBF;" width="2.722" height="11.339"/>
                <rect id="XMLID_2633_" x="519.874" y="1041.837" transform="matrix(0.9252 0.3796 -0.3796 0.9252 436.5873 -119.4514)" style="fill:#BFBFBF;" width="2.722" height="11.339"/>
              </g>
            </g>
          </g>
        </g>
      </g>
    </g>
  </g>
</svg>